# xmcd
#
# Track frame offsets:
#	150
#	22444
#	41542
#	59602
#	69852
#	84936
#	101009
#	114543
#	130741
#	146132
#	162815
#	176563
#	193042
#	212455
#	226324
#	242877
#
# Disc length: 3509 seconds
#
# Revision: 0
# Processed by: cddbd v1.5.2PL0 Copyright (c) Steve Scherf et al.
# Submitted via: audiograbber 1.83.01
#
DISCID=e00db310
DTITLE=Various Artist - Bella Italia Vol.1
DYEAR=1900
DGENRE=
TTITLE0=Bella Italia Vol.1 - 01 - Bino - Duona Domenica
TTITLE1=Bella Italia Vol.1 - 02 - Gianmarco Di Leuca - Azzuro
TTITLE2=Bella Italia Vol.1 - 03 - Bino - Mama Leone
TTITLE3=Bella Italia Vol.1 - 04 - One and One - Il Mondo
TTITLE4=Bella Italia Vol.1 - 05 - Los Salveros - Sasa Caliente
TTITLE5=Bella Italia Vol.1 - 06 - Los Chorros - Puerto Del Sol
TTITLE6=Bella Italia Vol.1 - 07 - One and One - Lailoa
TTITLE7=Bella Italia Vol.1 - 08 - Il Superduo - Zuccero E Caffé
TTITLE8=Bella Italia Vol.1 - 09 - Franco Saputo - Io E Te
TTITLE9=Bella Italia Vol.1 - 10 - I Santo Califano - Diridin Din Din
TTITLE10=Bella Italia Vol.1 - 11 - Piero Ipazio - Il Nostro Tempo
TTITLE11=Bella Italia Vol.1 - 12 - Franco Califano - Buio E Luna Piena
TTITLE12=Bella Italia Vol.1 - 13 - Il Superduo - Perche
TTITLE13=Bella Italia Vol.1 - 14 - Franca Ricci - Ciao Mister
TTITLE14=Bella Italia Vol.1 - 15 - Bino - Buona Notte
TTITLE15=Bella Italia Vol.1 - 16 - Santabarbara - Charly
EXTD=
EXTT0=
EXTT1=
EXTT2=
EXTT3=
EXTT4=
EXTT5=
EXTT6=
EXTT7=
EXTT8=
EXTT9=
EXTT10=
EXTT11=
EXTT12=
EXTT13=
EXTT14=
EXTT15=
PLAYORDER=
